PathFileType	3	(X/Y/Z)	squats_1__view2_aligned.trc
DataRate	CameraRate	NumFrames	NumMarkers	Units	OrigDataRate	OrigDataStartFrame	OrigNumFrames
100.0	100.0	6	19	mm	100.0	1160	1660
Frame#	Time	pelvis			neck			head			hip_left			hip_right			knee_left			knee_right			ankle_left			ankle_right			heel_left			heel_right			toe_left			toe_right			shoulder_left			shoulder_right			elbow_left			elbow_right			wrist_left			wrist_right			
		X1	Y1	Z1	X2	Y2	Z2	X3	Y3	Z3	X4	Y4	Z4	X5	Y5	Z5	X6	Y6	Z6	X7	Y7	Z7	X8	Y8	Z8	X9	Y9	Z9	X10	Y10	Z10	X11	Y11	Z11	X12	Y12	Z12	X13	Y13	Z13	X14	Y14	Z14	X15	Y15	Z15	X16	Y16	Z16	X17	Y17	Z17	X18	Y18	Z18	X19	Y19	Z19	
1160	11.59000	70.312719	882.815357	69.534812	54.715210	1414.255553	-114.641868	44.470440	1542.192528	-234.967603	-4.865342	875.422331	73.989136	145.491241	890.208388	65.080558	-76.333766	500.627896	-89.977109	212.498315	521.075663	-108.363164	-80.041050	153.057239	84.750296	237.427213	174.243983	64.059438	-79.237197	113.594249	126.701225	234.288586	136.362733	107.349290	-59.792373	82.228627	-83.965008	269.902267	94.458804	-99.737989	-107.484434	1382.926297	-59.899024	225.328363	1351.326809	-83.688795	-205.795018	1131.930027	22.804352	316.371122	1085.394639	-50.854435	-205.339889	1021.876999	-192.284762	265.638061	969.537366	-259.933956
1161	11.60000	67.746873	877.953843	71.928154	53.623296	1407.784329	-116.675439	43.734363	1535.240911	-237.553905	-7.450504	870.736561	76.366142	142.944712	885.171130	67.490237	-79.371626	498.754931	-93.341214	210.015556	518.191980	-111.032556	-82.041627	152.938504	84.403573	234.472967	172.690486	63.985655	-81.159182	113.720327	126.561748	231.272971	135.144106	107.529060	-61.628093	81.767789	-83.915088	267.000981	91.847058	-99.169510	-108.842226	1377.018674	-61.903350	224.201669	1344.549376	-85.661244	-207.253571	1126.219723	21.532492	314.439051	1078.431562	-52.314454	-207.457453	1015.624644	-193.077618	261.008644	963.132986	-260.862804
1162	11.61000	65.181028	873.092330	74.321496	52.531383	1401.313106	-118.709010	42.998287	1528.289293	-240.140206	-10.035665	866.050791	78.743148	140.398183	880.133873	69.899915	-82.409487	496.881965	-96.705319	207.532797	515.308298	-113.701949	-84.042205	152.819768	84.056850	231.518720	171.136989	63.911872	-83.081167	113.846405	126.422271	228.257355	133.925478	107.708829	-63.463813	81.306950	-83.865167	264.099695	89.235312	-98.601031	-110.200018	1371.111050	-63.907677	223.074974	1337.771943	-87.633692	-208.712124	1120.509419	20.260633	312.506981	1071.468484	-53.774474	-209.575016	1009.372289	-193.870474	256.379227	956.728605	-261.791652
1163	11.62000	62.615183	868.230816	76.714837	51.439469	1394.841882	-120.742581	42.262210	1521.337676	-242.726508	-12.620827	861.365021	81.120154	137.851654	875.096615	72.309594	-85.447348	495.009000	-100.069423	205.050037	512.424616	-116.371341	-86.042783	152.701033	83.710127	228.564473	169.583492	63.838089	-85.003152	113.972483	126.282793	225.241740	132.706850	107.888599	-65.299533	80.846112	-83.815247	261.198410	86.623566	-98.032551	-111.557811	1365.203427	-65.912003	221.948280	1330.994510	-89.606141	-210.170676	1114.799115	18.988774	310.574910	1064.505407	-55.234493	-211.692579	1003.119933	-194.663330	251.749811	950.324225	-262.720500
1164	11.63000	61.636673	862.284554	79.326008	51.159980	1386.876105	-122.326153	41.840570	1512.759006	-244.917373	-13.614925	855.539999	83.670650	136.888710	869.029114	74.981435	-87.172131	492.882361	-102.900316	204.309400	510.063407	-119.146969	-86.176666	152.502786	83.578619	227.054743	169.045565	63.943719	-84.958834	114.030490	126.347064	223.667445	132.591513	108.279035	-65.367037	80.323508	-83.563605	259.732206	84.830993	-97.093792	-111.992991	1357.394022	-67.338148	221.776008	1323.258620	-91.229598	-210.939528	1107.300770	17.833769	310.304669	1056.863089	-56.747152	-212.057109	995.408779	-195.514003	249.443179	942.669417	-263.573963
1165	11.64000	60.658164	856.338292	81.937178	50.880490	1378.910327	-123.909725	41.418929	1504.180336	-247.108239	-14.609023	849.714976	86.221145	135.925765	862.961612	77.653277	-88.896915	490.755722	-105.731208	203.568762	507.702199	-121.922598	-86.310550	152.304540	83.447111	225.545013	168.507638	64.049349	-84.914516	114.088497	126.411335	222.093150	132.476177	108.669471	-65.434541	79.800905	-83.311962	258.266003	83.038419	-96.155032	-112.428171	1349.584617	-68.764292	221.603735	1315.522730	-92.853054	-211.708380	1099.802425	16.678764	310.034428	1049.220771	-58.259811	-212.421639	987.697625	-196.364675	247.136547	935.014609	-264.427427
